<svg width="48" height="48" viewBox="0 0 48 48" fill="none" xmlns="http://www.w3.org/2000/svg">
<g clip-path="url(#clip0_27_382)">
<path d="M24 45.5999V10.7739C24 10.7739 19.09 5.3199 2.53601 5.0999C2.39956 5.09856 2.2642 5.12439 2.13784 5.1759C2.01148 5.2274 1.89663 5.30355 1.80001 5.3999C1.60518 5.59691 1.49594 5.86283 1.49601 6.1399V38.8879C1.49379 39.1575 1.59718 39.4173 1.78407 39.6117C1.97096 39.8061 2.2265 39.9196 2.49601 39.9279C19.086 40.1419 24 45.5999 24 45.5999Z" stroke="#2F57E2" stroke-width="3" stroke-linecap="round" stroke-linejoin="round"/>
<path d="M18 23.7099C14.5965 22.5651 11.0617 21.8561 7.47998 21.5999" stroke="#2F57E2" stroke-width="3" stroke-linecap="round" stroke-linejoin="round"/>
<path d="M18 32.1C14.5958 30.9597 11.0611 30.2541 7.47998 30" stroke="#2F57E2" stroke-width="3" stroke-linecap="round" stroke-linejoin="round"/>
<path d="M30 23.7099C33.4035 22.5651 36.9383 21.8561 40.52 21.5999" stroke="#2F57E2" stroke-width="3" stroke-linecap="round" stroke-linejoin="round"/>
<path d="M30 32.1C33.4042 30.9597 36.9389 30.2541 40.52 30" stroke="#2F57E2" stroke-width="3" stroke-linecap="round" stroke-linejoin="round"/>
<path d="M40.52 5.33987C42.04 5.20787 43.684 5.12387 45.464 5.09987C45.5998 5.09906 45.7344 5.12515 45.86 5.17664C45.9857 5.22813 46.0998 5.304 46.196 5.39987C46.3908 5.59688 46.5001 5.8628 46.5 6.13987V38.8879C46.5022 39.1575 46.3988 39.4173 46.2119 39.6117C46.025 39.806 45.7695 39.9195 45.5 39.9279C28.914 40.1419 24 45.5999 24 45.5999" stroke="#2F57E2" stroke-width="3" stroke-linecap="round" stroke-linejoin="round"/>
<path d="M24 45.6V10.774C24 10.774 26.286 8.234 33 6.552" stroke="#2F57E2" stroke-width="3" stroke-linecap="round" stroke-linejoin="round"/>
<path d="M40.5 15.5999V2.3999C37.9723 2.60143 35.4644 3.00268 33 3.5999V15.5999L36.75 12.5999L40.5 15.5999Z" stroke="#2F57E2" stroke-width="3" stroke-linecap="round" stroke-linejoin="round"/>
</g>
<defs>
<clipPath id="clip0_27_382">
<rect width="48" height="48" fill="white"/>
</clipPath>
</defs>
</svg>
