<svg width="24" height="24" viewBox="0 0 24 24" fill="none" xmlns="http://www.w3.org/2000/svg">
<g clip-path="url(#clip0_599_11341)">
<path d="M0.75 16.375H22.75" stroke="#2F57E2" stroke-width="2" stroke-linecap="round" stroke-linejoin="round"/>
<path d="M19 12.375L23.25 16.375L19 20.375" stroke="#2F57E2" stroke-width="2" stroke-linecap="round" stroke-linejoin="round"/>
<path d="M10.669 4.618C10.7655 4.32886 10.9505 4.07739 11.1978 3.89918C11.4451 3.72097 11.7422 3.62506 12.047 3.625C12.2378 3.62487 12.4268 3.66236 12.6032 3.73534C12.7795 3.80831 12.9398 3.91533 13.0747 4.05028C13.2097 4.18523 13.3167 4.34546 13.3897 4.52181C13.4626 4.69815 13.5001 4.88715 13.5 5.078C13.5 5.42833 13.3607 5.7643 13.113 6.012L10.5 8.625H13.5" stroke="#2F57E2" stroke-width="2" stroke-linecap="round" stroke-linejoin="round"/>
<path d="M20 4.625C20 4.35978 20.1054 4.10543 20.2929 3.91789C20.4804 3.73036 20.7348 3.625 21 3.625H21.757C21.9212 3.62533 22.0836 3.65799 22.2352 3.72111C22.3867 3.78423 22.5243 3.87658 22.6402 3.99288C22.756 4.10919 22.8478 4.24717 22.9103 4.39896C22.9728 4.55074 23.0048 4.71335 23.0045 4.8775C23.0042 5.04165 22.9715 5.20413 22.9084 5.35566C22.8453 5.5072 22.7529 5.64481 22.6366 5.76065C22.5203 5.87649 22.3823 5.96829 22.2305 6.03081C22.0788 6.09332 21.9162 6.12533 21.752 6.125C22.0835 6.12434 22.4017 6.2554 22.6366 6.48935C22.8715 6.7233 23.0038 7.04098 23.0045 7.3725C23.0052 7.70402 22.8741 8.02223 22.6402 8.25712C22.4062 8.492 22.0885 8.62434 21.757 8.625H21C20.7348 8.625 20.4804 8.51964 20.2929 8.33211C20.1054 8.14457 20 7.89022 20 7.625" stroke="#2F57E2" stroke-width="2" stroke-linecap="round" stroke-linejoin="round"/>
<path d="M3 8.625V4.125C3 4.03214 2.97414 3.94112 2.92533 3.86213C2.87651 3.78315 2.80666 3.71931 2.72361 3.67779C2.64055 3.63626 2.54758 3.61868 2.4551 3.62702C2.36262 3.63536 2.27428 3.66929 2.2 3.725L1 4.625" stroke="#2F57E2" stroke-width="2" stroke-linecap="round" stroke-linejoin="round"/>
<path d="M2 8.625H4" stroke="#2F57E2" stroke-width="2" stroke-linecap="round" stroke-linejoin="round"/>
<path d="M17 6.5C16.7929 6.5 16.625 6.33211 16.625 6.125C16.625 5.91789 16.7929 5.75 17 5.75" stroke="#2F57E2" stroke-width="2"/>
<path d="M17 6.5C17.2071 6.5 17.375 6.33211 17.375 6.125C17.375 5.91789 17.2071 5.75 17 5.75" stroke="#2F57E2" stroke-width="2"/>
<path d="M7 6.5C6.79289 6.5 6.625 6.33211 6.625 6.125C6.625 5.91789 6.79289 5.75 7 5.75" stroke="#2F57E2" stroke-width="2"/>
<path d="M7 6.5C7.20711 6.5 7.375 6.33211 7.375 6.125C7.375 5.91789 7.20711 5.75 7 5.75" stroke="#2F57E2" stroke-width="2"/>
</g>
<defs>
<clipPath id="clip0_599_11341">
<rect width="24" height="24" fill="white"/>
</clipPath>
</defs>
</svg>
