<svg width="49" height="48" viewBox="0 0 49 48" fill="none" xmlns="http://www.w3.org/2000/svg">
<g clip-path="url(#clip0_27_547)">
<path fill-rule="evenodd" clip-rule="evenodd" d="M18.4498 37.2374C18.577 36.5215 19.1995 36 19.9266 36H26.4066C27.1338 36 27.7562 36.5215 27.8835 37.2374L29.4835 46.2374C29.5611 46.6744 29.4414 47.1232 29.1564 47.4634C28.8714 47.8035 28.4504 48 28.0066 48H18.3266C17.8829 48 17.4619 47.8035 17.1769 47.4634C16.8919 47.1232 16.7721 46.6744 16.8498 46.2374L18.4498 37.2374ZM21.1835 39L20.1168 45H26.2164L25.1498 39H21.1835Z" fill="#2F57E2"/>
<path fill-rule="evenodd" clip-rule="evenodd" d="M11.9666 46.5C11.9666 45.6716 12.6382 45 13.4666 45H32.8666C33.695 45 34.3666 45.6716 34.3666 46.5C34.3666 47.3284 33.695 48 32.8666 48H13.4666C12.6382 48 11.9666 47.3284 11.9666 46.5Z" fill="#2F57E2"/>
<path fill-rule="evenodd" clip-rule="evenodd" d="M0.666626 29.5C0.666626 28.6716 1.3382 28 2.16663 28H44.1666C44.9951 28 45.6666 28.6716 45.6666 29.5C45.6666 30.3284 44.9951 31 44.1666 31H2.16663C1.3382 31 0.666626 30.3284 0.666626 29.5Z" fill="#2F57E2"/>
<path fill-rule="evenodd" clip-rule="evenodd" d="M8.16663 3C6.97315 3 5.82856 3.47411 4.98465 4.31802C4.14073 5.16193 3.66663 6.30653 3.66663 7.5V31.5C3.66663 32.6935 4.14073 33.8381 4.98465 34.682C5.82856 35.5259 6.97315 36 8.16663 36H38.1666C39.3601 36 40.5047 35.5259 41.3486 34.682C42.1925 33.8381 42.6666 32.6935 42.6666 31.5V29.5C42.6666 28.6716 43.3382 28 44.1666 28C44.9951 28 45.6666 28.6716 45.6666 29.5V31.5C45.6666 33.4891 44.8764 35.3968 43.4699 36.8033C42.0634 38.2098 40.1558 39 38.1666 39H8.16663C6.1775 39 4.26985 38.2098 2.86333 36.8033C1.4568 35.3968 0.666626 33.4891 0.666626 31.5V7.5C0.666626 5.51088 1.4568 3.60322 2.86333 2.1967C4.26985 0.790176 6.1775 0 8.16663 0H38.1666C38.9951 0 39.6666 0.671573 39.6666 1.5C39.6666 2.32843 38.9951 3 38.1666 3H8.16663Z" fill="#2F57E2"/>
<path fill-rule="evenodd" clip-rule="evenodd" d="M30.8737 6.50782C30.9245 6.50261 30.9756 6.5 31.0266 6.5H45.042C45.6375 6.50608 46.2232 6.65287 46.7512 6.92826C47.2793 7.20364 47.7348 7.5999 48.0807 8.08474C48.4265 8.56958 48.6529 9.12928 48.7414 9.71823C48.8257 10.2792 48.7826 10.8515 48.6158 11.3929L46.6102 20.3285C46.6069 20.3432 46.6034 20.3578 46.5997 20.3724C46.3103 21.5017 45.6695 22.5097 44.7699 23.2512C43.8703 23.9926 42.7584 24.429 41.5947 24.4974C41.5654 24.4991 41.536 24.5 41.5066 24.5H26.5287C25.9221 24.5157 25.3211 24.3787 24.781 24.1014C24.2324 23.8196 23.7649 23.4024 23.4228 22.8892C23.0807 22.3761 22.8754 21.7841 22.8263 21.1693C22.78 20.5893 22.8742 20.0073 23.1003 19.4723L25.9159 10.5495C26.2574 9.46562 26.909 8.50455 27.7898 7.7865C28.6708 7.06826 29.7429 6.62374 30.8737 6.50782ZM31.1115 9.5C30.5887 9.56647 30.0945 9.77819 29.6854 10.1117C29.2585 10.4598 28.9428 10.9252 28.7774 11.4505L25.9371 20.4514C25.9186 20.5101 25.8965 20.5675 25.8709 20.6235C25.827 20.7196 25.8084 20.8253 25.8168 20.9306C25.8252 21.0358 25.8604 21.1372 25.919 21.2251C25.9775 21.313 26.0576 21.3845 26.1516 21.4327C26.2455 21.481 26.3503 21.5044 26.4558 21.5009C26.4728 21.5003 26.4897 21.5 26.5066 21.5H41.4574C41.9723 21.4617 42.463 21.2649 42.8619 20.9361C43.2657 20.6033 43.5547 20.1524 43.6886 19.6469L45.7031 10.6715C45.7141 10.6224 45.7275 10.574 45.7434 10.5262C45.7822 10.4096 45.793 10.2855 45.7747 10.164C45.7564 10.0425 45.7097 9.92696 45.6384 9.82692C45.567 9.72687 45.473 9.6451 45.364 9.58828C45.2567 9.53232 45.1379 9.50211 45.017 9.5H31.1115Z" fill="#2F57E2"/>
<path fill-rule="evenodd" clip-rule="evenodd" d="M47.9687 8.13032C48.4491 8.80525 48.2914 9.74181 47.6164 10.2222L36.3764 18.2222C35.7442 18.6722 34.8731 18.5656 34.368 17.9765L27.5079 9.97654C26.9687 9.34766 27.0413 8.4007 27.6702 7.86143C28.2991 7.32217 29.2461 7.39482 29.7853 8.0237L35.7533 14.9834L45.8768 7.77805C46.5518 7.29767 47.4883 7.45539 47.9687 8.13032Z" fill="#2F57E2"/>
<path fill-rule="evenodd" clip-rule="evenodd" d="M9.66663 19C9.66663 18.1716 10.3382 17.5 11.1666 17.5H15.1666C15.9951 17.5 16.6666 18.1716 16.6666 19C16.6666 19.8284 15.9951 20.5 15.1666 20.5H11.1666C10.3382 20.5 9.66663 19.8284 9.66663 19Z" fill="#2F57E2"/>
<path fill-rule="evenodd" clip-rule="evenodd" d="M9.66663 12C9.66663 11.1716 10.3382 10.5 11.1666 10.5H20.1666C20.9951 10.5 21.6666 11.1716 21.6666 12C21.6666 12.8284 20.9951 13.5 20.1666 13.5H11.1666C10.3382 13.5 9.66663 12.8284 9.66663 12Z" fill="#2F57E2"/>
</g>
<defs>
<clipPath id="clip0_27_547">
<rect width="48" height="48" fill="white" transform="translate(0.666626)"/>
</clipPath>
</defs>
</svg>
