<svg width="48" height="48" viewBox="0 0 48 48" fill="none" xmlns="http://www.w3.org/2000/svg">
<path d="M32.0001 24C32.0001 28.4183 28.4184 32 24.0001 32C19.5818 32 16.0001 28.4183 16.0001 24C16.0001 19.5817 19.5818 16 24.0001 16C28.4184 16 32.0001 19.5817 32.0001 24Z" stroke="white" stroke-width="3"/>
<path d="M20.5689 3.72587C22.1221 1.13394 25.878 1.13394 27.4312 3.72587L28.8427 6.08141C29.7485 7.593 31.5368 8.33374 33.2462 7.90538L35.9099 7.23785C38.8409 6.50334 41.4967 9.15917 40.7622 12.0902L40.0947 14.7539C39.6664 16.4633 40.4071 18.2516 41.9187 19.1574L44.2742 20.5689C46.8662 22.1221 46.8662 25.878 44.2742 27.4311L41.9187 28.8427C40.4071 29.7485 39.6664 31.5368 40.0947 33.2461L40.7622 35.9098C41.4967 38.8409 38.8409 41.4967 35.9099 40.7622L33.2462 40.0947C31.5368 39.6663 29.7485 40.407 28.8427 41.9186L27.4312 44.2742C25.878 46.8661 22.1221 46.8661 20.5689 44.2742L19.1574 41.9186C18.2516 40.407 16.4633 39.6663 14.754 40.0947L12.0903 40.7622C9.15923 41.4967 6.5034 38.8409 7.23792 35.9098L7.90544 33.2461C8.3338 31.5368 7.59305 29.7485 6.08146 28.8427L3.72593 27.4311C1.134 25.878 1.134 22.1221 3.72593 20.5689L6.08147 19.1574C7.59306 18.2516 8.3338 16.4633 7.90544 14.7539L7.23792 12.0902C6.5034 9.15917 9.15923 6.50334 12.0903 7.23785L14.754 7.90538C16.4633 8.33374 18.2516 7.59299 19.1574 6.0814L20.5689 3.72587Z" stroke="white" stroke-width="3"/>
</svg>
