<svg width="49" height="48" viewBox="0 0 49 48" fill="none" xmlns="http://www.w3.org/2000/svg">
<g clip-path="url(#clip0_27_404)">
<path d="M44.6666 26V44C44.6666 44.7956 44.3506 45.5588 43.788 46.1214C43.2254 46.684 42.4622 47 41.6666 47H8.66663C7.87099 47 7.10791 46.684 6.54531 46.1214C5.98271 45.5588 5.66663 44.7956 5.66663 44V26" stroke="#2F57E2" stroke-width="3" stroke-linecap="round" stroke-linejoin="round"/>
<path d="M38.6666 33.5C38.6666 31.9088 38.0344 30.3826 36.9092 29.2574C35.784 28.1322 34.2578 27.5 32.6666 27.5C31.0754 27.5 29.5492 28.1322 28.424 29.2574C27.2988 30.3826 26.6666 31.9088 26.6666 33.5V47H38.6666V33.5Z" stroke="#2F57E2" stroke-width="3" stroke-linecap="round" stroke-linejoin="round"/>
<path d="M19.1666 32H13.1666C12.3382 32 11.6666 32.6716 11.6666 33.5V39.5C11.6666 40.3284 12.3382 41 13.1666 41H19.1666C19.995 41 20.6666 40.3284 20.6666 39.5V33.5C20.6666 32.6716 19.995 32 19.1666 32Z" stroke="#2F57E2" stroke-width="3" stroke-linecap="round" stroke-linejoin="round"/>
<path d="M33.4166 38.0195C33.0024 38.0195 32.6666 37.6837 32.6666 37.2695C32.6666 36.8553 33.0024 36.5195 33.4166 36.5195" stroke="#2F57E2" stroke-width="3"/>
<path d="M33.4166 38.0195C33.8308 38.0195 34.1666 37.6837 34.1666 37.2695C34.1666 36.8553 33.8308 36.5195 33.4166 36.5195" stroke="#2F57E2" stroke-width="3"/>
<path d="M2.66663 15.5C2.7522 16.9352 3.38263 18.2835 4.42905 19.2694C5.47549 20.2552 6.85893 20.8042 8.29663 20.8042C9.73433 20.8042 11.1178 20.2552 12.1642 19.2694C13.2106 18.2835 13.841 16.9352 13.9266 15.5C13.9266 16.9905 14.5187 18.42 15.5727 19.4739C16.6266 20.5278 18.0561 21.12 19.5466 21.12C21.0371 21.12 22.4666 20.5278 23.5206 19.4739C24.5744 18.42 25.1666 16.9905 25.1666 15.5C25.2522 16.9352 25.8826 18.2835 26.929 19.2694C27.9754 20.2552 29.3588 20.8042 30.7966 20.8042C32.2344 20.8042 33.6178 20.2552 34.6642 19.2694C35.7106 18.2835 36.341 16.9352 36.4266 15.5C36.4266 16.9905 37.0188 18.42 38.0726 19.4739C39.1266 20.5278 40.556 21.12 42.0466 21.12C43.5372 21.12 44.9666 20.5278 46.0206 19.4739C47.0744 18.42 47.6666 16.9905 47.6666 15.5L44.9266 3.18C44.8538 2.84656 44.6694 2.54792 44.404 2.33338C44.1386 2.11884 43.8078 2.00124 43.4666 2H6.86663C6.52533 2.00124 6.19467 2.11884 5.92923 2.33338C5.66379 2.54792 5.47943 2.84656 5.40663 3.18L2.66663 15.5Z" stroke="#2F57E2" stroke-width="3" stroke-linecap="round" stroke-linejoin="round"/>
</g>
<defs>
<clipPath id="clip0_27_404">
<rect width="48" height="48" fill="white" transform="translate(0.666626)"/>
</clipPath>
</defs>
</svg>
