<svg width="50" height="48" viewBox="0 0 50 48" fill="none" xmlns="http://www.w3.org/2000/svg">
<path d="M6.66663 2V10M10.6666 6H2.66663M8.66663 38V46M12.6666 42H4.66663M19.703 21.6892L14.4552 23.0312C13.4522 23.2877 13.4522 24.7123 14.4552 24.9688L19.703 26.3108C23.9517 27.3973 27.2693 30.715 28.3558 34.9637L29.6978 40.2114C29.9543 41.2144 31.379 41.2145 31.6354 40.2115L32.9774 34.9637C34.0639 30.715 37.3816 27.3973 41.6303 26.3108L46.8781 24.9688C47.8811 24.7123 47.8811 23.2877 46.8781 23.0312L41.6303 21.6892C37.3816 20.6027 34.0639 17.285 32.9774 13.0363L31.6355 7.78855C31.379 6.78555 29.9543 6.78555 29.6978 7.78855L28.3558 13.0363C27.2693 17.285 23.9517 20.6027 19.703 21.6892Z" stroke="white" stroke-width="3" stroke-linecap="round" stroke-linejoin="round"/>
</svg>
