<svg width="48" height="48" viewBox="0 0 48 48" fill="none" xmlns="http://www.w3.org/2000/svg">
<path d="M42.5528 44.0176C44.71 44.0176 46.4588 42.2688 46.4588 40.1118V7.8883C46.4588 5.73114 44.71 3.98242 42.5528 3.98242H5.44712C3.28998 3.98242 1.54126 5.73114 1.54126 7.8883V40.1118C1.54126 42.2688 3.28998 44.0176 5.44712 44.0176" stroke="white" stroke-width="3" stroke-linecap="round" stroke-linejoin="round"/>
<path d="M1.54126 13.7471H46.4588" stroke="white" stroke-width="3" stroke-linecap="round" stroke-linejoin="round"/>
<path d="M20.0942 9.35341C19.8245 9.35341 19.606 9.13483 19.606 8.86517C19.606 8.59553 19.8245 8.37695 20.0942 8.37695" stroke="white" stroke-width="3" stroke-linecap="round"/>
<path d="M20.0942 9.35341C20.3638 9.35341 20.5824 9.13483 20.5824 8.86517C20.5824 8.59553 20.3638 8.37695 20.0942 8.37695" stroke="white" stroke-width="3" stroke-linecap="round"/>
<path d="M14.2353 9.35341C13.9657 9.35341 13.7471 9.13483 13.7471 8.86517C13.7471 8.59553 13.9657 8.37695 14.2353 8.37695" stroke="white" stroke-width="3" stroke-linecap="round"/>
<path d="M14.2353 9.35341C14.5049 9.35341 14.7235 9.13483 14.7235 8.86517C14.7235 8.59553 14.5049 8.37695 14.2353 8.37695" stroke="white" stroke-width="3" stroke-linecap="round"/>
<path d="M8.37655 9.35341C8.10691 9.35341 7.88831 9.13483 7.88831 8.86517C7.88831 8.59553 8.10691 8.37695 8.37655 8.37695" stroke="white" stroke-width="3" stroke-linecap="round"/>
<path d="M8.37653 9.35341C8.64617 9.35341 8.86475 9.13483 8.86475 8.86517C8.86475 8.59553 8.64617 8.37695 8.37653 8.37695" stroke="white" stroke-width="3" stroke-linecap="round"/>
<path d="M20.3946 21.747V28.9578C20.3946 30.949 22.0088 32.5632 24 32.5632C25.9912 32.5632 27.6054 30.949 27.6054 28.9578V21.747C27.6054 19.7558 25.9912 18.1416 24 18.1416C22.0088 18.1416 20.3946 19.7558 20.3946 21.747Z" stroke="white" stroke-width="2" stroke-linecap="round" stroke-linejoin="round"/>
<path d="M14.916 18.1406L7.7052 28.9568H17.3196" stroke="white" stroke-width="2" stroke-linecap="round" stroke-linejoin="round"/>
<path d="M14.916 18.1406V32.5622" stroke="white" stroke-width="2" stroke-linecap="round" stroke-linejoin="round"/>
<path d="M37.8912 18.1406L30.6802 28.9568H40.2948" stroke="white" stroke-width="2" stroke-linecap="round" stroke-linejoin="round"/>
<path d="M37.8912 18.1406V32.5622" stroke="white" stroke-width="2" stroke-linecap="round" stroke-linejoin="round"/>
<path d="M11.0125 36.957L16.8102 42.7548" stroke="white" stroke-width="2" stroke-linecap="round"/>
<path d="M16.8102 36.957L11.0124 42.7548" stroke="white" stroke-width="2" stroke-linecap="round"/>
<path d="M31.1334 36.957L36.9312 42.7548" stroke="white" stroke-width="2" stroke-linecap="round"/>
<path d="M36.9312 36.957L31.1334 42.7548" stroke="white" stroke-width="2" stroke-linecap="round"/>
<path d="M21.1012 36.957L26.899 42.7548" stroke="white" stroke-width="2" stroke-linecap="round"/>
<path d="M26.899 36.957L21.1012 42.7548" stroke="white" stroke-width="2" stroke-linecap="round"/>
</svg>
