<svg width="48" height="48" viewBox="0 0 48 48" fill="none" xmlns="http://www.w3.org/2000/svg">
<path d="M2 8.00001L1.68571 6.5333L0.5 6.78738V8.00001H2ZM30 46V47.5L30 47.5L30 46ZM2 46H0.5V47.5H2V46ZM25.1619 3.03674L25.4762 4.50345L25.1619 3.03674ZM12 38V36.5H10.5V38H12ZM20 38H21.5V36.5H20V38ZM20 46V47.5H21.5V46H20ZM12 46H10.5V47.5H12V46ZM30 10V8.5C29.1716 8.5 28.5 9.17157 28.5 10H30ZM46 10H47.5C47.5 9.17157 46.8284 8.5 46 8.5V10ZM46 46L46 47.5C46.8284 47.5 47.5 46.8284 47.5 46H46ZM2.31429 9.46671L25.4762 4.50345L24.8476 1.57004L1.68571 6.5333L2.31429 9.46671ZM28.5 6.94795V46H31.5V6.94795H28.5ZM30 44.5H2V47.5H30V44.5ZM3.5 46V8.00001H0.5V46H3.5ZM25.4762 4.50345C27.0325 4.16996 28.5 5.35634 28.5 6.94795H31.5C31.5 3.4464 28.2714 0.836362 24.8476 1.57004L25.4762 4.50345ZM12 39.5H20V36.5H12V39.5ZM18.5 38V46H21.5V38H18.5ZM20 44.5H12V47.5H20V44.5ZM13.5 46V38H10.5V46H13.5ZM38 29.5H46V26.5H38V29.5ZM38 21.5H46V18.5H38V21.5ZM38 37.5H46V34.5H38V37.5ZM30 11.5H46V8.5H30V11.5ZM44.5 10V46H47.5V10H44.5ZM46 44.5L30 44.5L30 47.5L46 47.5L46 44.5ZM31.5 46V10H28.5V46H31.5ZM36.5 0V10H39.5V0H36.5ZM8 31.5H14V28.5H8V31.5ZM18 31.5H24V28.5H18V31.5ZM18 15.5H24V12.5H18V15.5ZM8 15.5H14V12.5H8V15.5ZM8 23.5H14V20.5H8V23.5ZM18 23.5H24V20.5H18V23.5Z" fill="#2F57E2"/>
</svg>
