<svg width="49" height="48" viewBox="0 0 49 48" fill="none" xmlns="http://www.w3.org/2000/svg">
<path d="M21.6079 30.7633C21.3245 31.5417 21.7259 32.4025 22.5044 32.6859C23.2829 32.9692 24.1436 32.5678 24.427 31.7893L21.6079 30.7633ZM28.5312 20.513C28.8145 19.7346 28.4132 18.8738 27.6347 18.5905C26.8562 18.3071 25.9955 18.7085 25.7121 19.487L28.5312 20.513ZM22.8333 6C22.8333 6.82843 23.5049 7.5 24.3333 7.5C25.1618 7.5 25.8333 6.82843 25.8333 6H22.8333ZM42.3333 22.5C41.5049 22.5 40.8333 23.1716 40.8333 24C40.8333 24.8284 41.5049 25.5 42.3333 25.5V22.5ZM6.33333 25.5C7.16176 25.5 7.83333 24.8284 7.83333 24C7.83333 23.1716 7.16176 22.5 6.33333 22.5V25.5ZM11.394 6.93934C10.8082 6.35355 9.85845 6.35355 9.27267 6.93934C8.68688 7.52513 8.68688 8.47487 9.27267 9.06066L11.394 6.93934ZM12.1011 11.8891C12.6869 12.4749 13.6366 12.4749 14.2224 11.8891C14.8082 11.3033 14.8082 10.3536 14.2224 9.76777L12.1011 11.8891ZM40.2224 9.06066C40.8081 8.47487 40.8081 7.52513 40.2224 6.93934C39.6366 6.35355 38.6868 6.35355 38.101 6.93934L40.2224 9.06066ZM35.2726 9.76777C34.6868 10.3536 34.6868 11.3033 35.2726 11.8891C35.8584 12.4749 36.8081 12.4749 37.3939 11.8891L35.2726 9.76777ZM44.8333 24C44.8333 35.3218 35.6552 44.5 24.3333 44.5V47.5C37.312 47.5 47.8333 36.9787 47.8333 24H44.8333ZM24.3333 44.5C13.0115 44.5 3.83333 35.3218 3.83333 24H0.833328C0.833328 36.9787 11.3546 47.5 24.3333 47.5V44.5ZM3.83333 24C3.83333 12.6782 13.0115 3.5 24.3333 3.5V0.5C11.3546 0.5 0.833328 11.0213 0.833328 24H3.83333ZM24.3333 3.5C35.6552 3.5 44.8333 12.6782 44.8333 24H47.8333C47.8333 11.0213 37.312 0.5 24.3333 0.5V3.5ZM24.427 31.7893L28.5312 20.513L25.7121 19.487L21.6079 30.7633L24.427 31.7893ZM22.8333 2V6H25.8333V2H22.8333ZM46.3333 22.5H42.3333V25.5H46.3333V22.5ZM6.33333 22.5H2.33333V25.5H6.33333V22.5ZM9.27267 9.06066L12.1011 11.8891L14.2224 9.76777L11.394 6.93934L9.27267 9.06066ZM38.101 6.93934L35.2726 9.76777L37.3939 11.8891L40.2224 9.06066L38.101 6.93934ZM7.33333 38C8.48566 38.9603 8.48513 38.9609 8.48461 38.9615C8.48446 38.9617 8.48396 38.9623 8.48367 38.9627C8.48308 38.9634 8.48256 38.964 8.48212 38.9645C8.48123 38.9656 8.48065 38.9663 8.48035 38.9666C8.47977 38.9673 8.48038 38.9666 8.48217 38.9645C8.48577 38.9603 8.49415 38.9507 8.50735 38.9361C8.53377 38.9067 8.57949 38.8571 8.64497 38.79C8.77597 38.6558 8.98584 38.452 9.27827 38.2014C9.86309 37.7001 10.7775 37.0118 12.0516 36.3168C14.5914 34.9315 18.5956 33.5 24.3333 33.5V30.5C18.0711 30.5 13.5753 32.0685 10.6151 33.6832C9.13919 34.4882 8.05356 35.2999 7.32589 35.9236C6.96207 36.2355 6.68756 36.5004 6.49825 36.6944C6.40358 36.7914 6.33016 36.8706 6.27747 36.9292C6.25112 36.9584 6.22996 36.9825 6.2139 37.0011C6.20587 37.0104 6.19912 37.0183 6.19364 37.0247C6.1909 37.0279 6.18848 37.0308 6.18637 37.0333C6.18532 37.0346 6.18434 37.0357 6.18345 37.0368C6.183 37.0373 6.18239 37.0381 6.18216 37.0383C6.18157 37.039 6.181 37.0397 7.33333 38ZM24.3333 33.5C30.0711 33.5 34.0753 34.9315 36.6151 36.3168C37.8892 37.0118 38.8036 37.7001 39.3884 38.2014C39.6808 38.452 39.8907 38.6558 40.0217 38.79C40.0872 38.8571 40.1329 38.9067 40.1593 38.9361C40.1725 38.9507 40.1809 38.9603 40.1845 38.9645C40.1863 38.9666 40.1869 38.9673 40.1863 38.9666C40.186 38.9663 40.1854 38.9656 40.1845 38.9645C40.1841 38.964 40.1836 38.9634 40.183 38.9627C40.1827 38.9623 40.1822 38.9617 40.182 38.9615C40.1815 38.9609 40.181 38.9603 41.3333 38C42.4857 37.0397 42.4851 37.039 42.4845 37.0383C42.4843 37.0381 42.4837 37.0373 42.4832 37.0368C42.4823 37.0357 42.4813 37.0346 42.4803 37.0333C42.4782 37.0308 42.4758 37.0279 42.473 37.0247C42.4675 37.0183 42.4608 37.0104 42.4528 37.0011C42.4367 36.9825 42.4155 36.9584 42.3892 36.9292C42.3365 36.8706 42.2631 36.7914 42.1684 36.6944C41.9791 36.5004 41.7046 36.2355 41.3408 35.9236C40.6131 35.2999 39.5275 34.4882 38.0516 33.6832C35.0914 32.0685 30.5956 30.5 24.3333 30.5V33.5Z" fill="white"/>
</svg>
